<?xml version="1.0" encoding="utf-8"?>
<!-- Generator: Adobe Illustrator 21.0.0, SVG Export Plug-In . SVG Version: 6.00 Build 0)  -->
<svg version="1.1" id="_x2018_лой_1" xmlns="http://www.w3.org/2000/svg" xmlns:xlink="http://www.w3.org/1999/xlink" x="0px"
	 y="0px" viewBox="0 0 196.2 243.6" style="enable-background:new 0 0 196.2 243.6;" xml:space="preserve">
<style type="text/css">
	.st0{fill:#ffffff;}
	.st1{fill:#679F37;}
	.st2{fill:url(#SVGID_1_);}
</style>
<g>
	<path class="st0" d="M103.8,191.3c0,0,3.6-8.4,9.5-11.1c5.8-2.7,8,0.9,7.1,2.6c-0.9,1.6-2.6-2.4-7.7,0.4c-5.1,2.7-3.1,13.9,6,14.2
		c9.1,0.4,14.7-11.5,7.5-19.3c-6.8-7.3-16.6-2.6-20.8,1.1c-4.2,3.6-7.5,9.9-7.5,9.9L103.8,191.3z"/>
	<path class="st0" d="M25.7,191.3c0,0-3.6-8.4-9.5-11.1c-5.8-2.7-8,0.9-7.1,2.6c0.9,1.6,2.6-2.4,7.7,0.4c5.1,2.7,3.1,13.9-6,14.2
		c-9.1,0.4-14.7-11.5-7.5-19.3c6.8-7.3,16.6-2.6,20.8,1.1c4.2,3.6,7.5,9.9,7.5,9.9L25.7,191.3z"/>
	<path class="st0" d="M55.6,37.2c0,0-13-1.6-19.5,6.4c-6.6,8-2.2,18.4,4.4,19.2c6.6,0.7,8.9-0.5,8.9-0.5s-3.6,3.1-11.5,1.3
		c-7.8-1.8-11.3-14.8-2.7-25c8.6-10.2,22.4-8.6,22.4-8.6L55.6,37.2z"/>
	<path class="st0" d="M48.3,45.9c0,0,6.4-18.5,24.3-32.5C90.5-0.6,114-3,123.3,3.2c9.3,6.2,8.8,11.5,8.8,11.5s8.1-4.8,17.9-0.9
		c11.9,4.7,14.4,22.1,3.5,31.9c-7.5,6.8-18.2,6-18.2,6s0.5,6,0.2,11.5c-0.4,5.5-0.7,7.3-0.7,7.3h-6.6c0,0,1.3-5.1,1.8-12
		c0.5-6.9-0.4-12-0.4-12s8.8,2,15.5-2.4c6.8-4.4,8.5-17.3,1.1-21.5c-10.4-6-21.2,2.4-21.2,2.4s1.9-10.5-11.1-15.7
		C97.8,2.9,68.8,21.1,48.3,45.9z"/>
	<path class="st0" d="M67.5,84.8c0,0,10.8-8,33.4-12.8c22.6-4.7,41.8-2.9,41.8-2.9s0,10-1.8,25c-1.8,15-5.8,26.8-5.8,26.8
		s-21.5-15.5-40.1-18.1c-18.6-2.6-27,2.2-27,2.2L68,90.6l2.4,9.7c0,0,7.3-2.7,25.4-1.8c18.1,0.9,32.8,8.2,32.8,8.2s2-8.6,2.9-15.7
		c0.9-7.1,0.9-13.5,0.9-13.5S100.3,70.9,67.5,84.8z"/>
	<path class="st0" d="M83.4,124.2c0,0,6.2-5.1,16.4-0.4c10.2,4.7,23.5,22.4,36.5,24.6c13,2.2,17-5.7,13.7-10.2
		c-3.3-4.6-9.1-1.1-9.5,1.6c-0.4,2.7,2,4.7,4.6,4c2.6-0.7,1.3-2.9,1.3-2.9s2.4,2.7-0.4,4.6c-2.7,1.8-10.4-1.4-7.1-8
		c2.9-5.8,12.8-4.6,14.4,2c1.6,6.6-3.5,20.8-32.1,17.3C92.5,153.4,83.4,124.2,83.4,124.2z"/>
	<path class="st0" d="M85.4,124.4c0,0-5.1-6-13.9-4.2c-8.8,1.8-14.8,6.9-19.5,7.3c-4.7,0.4-7.3-4.6-5.1-6.9c2.2-2.4,5.8-1.3,5.7,0.9
		c-0.2,2.2-2.4,2.6-2.4,2.6s1.5,0.9,3.5-0.9c2-1.8-0.1-7.3-5.5-5.8c-4.7,1.3-6.4,9.5,0.9,13.9C56.4,135.5,76.3,136.9,85.4,124.4z"/>
	<path class="st0" d="M149.6,153.4c0,0,24.8,11.7,34.3,28.8c9.5,17.1,5.3,45.6-32.5,54.4c-37.8,8.8-64.2-0.5-66.2-1.5
		c-2-0.9-3.3-2.2-3.3-2.2l6.9-0.4c0,0-4.7-0.9-8.4-2.4c-3.6-1.5-4.2-4-4.2-4l12.4,0.5c0,0-7.7-1.6-12.6-3.8
		c-4.9-2.2-6.6-5.8-6.6-5.8l13.7,1.8c0,0-6.8-1.6-12-5.1c-4.6-3-4.9-5.5-4.9-5.5s2.7,1.3,13.3,2.6c10.6,1.3,17.1-0.2,17.1-0.2
		s-5.1-1.8-8.4-6.6c-3.3-4.7-1.6-8.2-1.6-8.2s2.6,5.5,10.6,7.1c8,1.6,24.1,2,28.5,3.6c4.4,1.6,2.2,6.4-0.2,8.4
		c-2.4,2-4.2,3.5-4.2,3.5s7.8-1.8,11.5-5.5c3.6-3.6,1.3-10.6-13.9-10.6c-15.1,0-23.8-1.6-28.3-4.7c-3.6-2.6-4.2-5.1-4.2-5.1
		s-3.3,5.7-0.7,11.1c2,4.2,4,5.8,4,5.8s-5.5,0-13.9-1.1c-8.4-1.1-12.8-2.7-12.8-2.7s0.7,3.6,3.6,6.8c2.9,3.1,3.8,3.5,3.8,3.5
		l-3.8-0.2c0,0,0.4,2.9,4.2,6.4c2.9,2.6,4.2,2.7,4.2,2.7l-3.8-0.5c0,0,2.2,3.5,5.5,5.8c2.1,1.5,3.3,1.5,3.3,1.5l-3.1-0.2
		c0,0,2.6,3.6,9.1,6.2c5.3,2,34.5,8.9,64,4.4c29.6-4.6,49.3-21.9,45.6-46.9C192.1,170.1,154.9,153.7,149.6,153.4z"/>
	<path class="st1" d="M94.6,187.2c3.2-5.5,6.4-11,9.6-16.5c-26,0-52,0-78,0c3.1,5.3,6.2,10.6,9.3,15.9c-2,0.6-18.6,6.1-21.1,24.3
		c-2.7,19.4,22.8,29.6,40.2,31.5c20,2.2,34.2-2.2,34.2-2.2s-8.2-2.2-14.9-9.7c-0.4-0.4,1.9,0.1,1.4-0.3c-2.6-1.9-5.8-5.4-6.9-7.2
		c-0.3-0.4,1.8,0,1.5-0.4c-3.1-3.5-4.9-6.5-5.8-8.9c-0.2-0.6,2.2,0.3,1.8-0.2c-3.8-5.3-4.2-9.5-4.2-9.5s6.6,2,13.1,2.9
		c6.6,0.9,12,1.3,12,1.3s-2.9-3.3-3.3-8.8c-0.4-5.5,2.7-9.1,2.7-9.1s2.9,5,7.3,7.5c5.5,3.1,19.9,3.6,19.9,3.6S108,190.5,94.6,187.2z
		"/>
	<path class="st0" d="M66.6,168.3c0,0-11.7-31.7-33.6-40.5c-21.9-8.8-32.5,9.9-27,21.9c5.5,12,24.1,8.4,25.9-2.6
		c1.8-10.9-10.3-12.9-14.2-8.8c-3,3.2-5.8,7.3-7.3,3.6c-1.5-3.6,1.6-14.6,15.3-12.8c17.2,2.3,32.1,39,32.1,39H66.6z"/>
	<linearGradient id="SVGID_1_" gradientUnits="userSpaceOnUse" x1="27.8276" y1="217.0087" x2="81.4038" y2="163.4325">
		<stop  offset="0" style="stop-color:#6FA837"/>
		<stop  offset="1" style="stop-color:#78B82A"/>
	</linearGradient>
	<path class="st2" d="M30.1,172.9h60.7c0,0-4.7,5.7-8.2,15.9c-3.1,8.8-2.7,16.4-2.7,16.4l-20.3-4.4c0,0-0.3,9.4,2.7,17
		c5.5,13.7-19.2,11.2-30.6,2.7c-12.6-9.3-9.6-22.7-1.1-28.5c6.3-4.3,7.4-4.7,7.4-4.7L30.1,172.9z"/>
</g>
</svg>
